<mxfile host="app.diagrams.net" modified="2020-08-15T04:33:56.860Z" agent="5.0 (Macintosh; Intel Mac OS X 10_15_4) AppleWebKit/537.36 (KHTML, like Gecko) Chrome/84.0.4147.105 Safari/537.36" etag="XHcRQ16eftYbXTR_y0bp" version="13.6.2" type="github">
  <diagram id="WAOPRZ_B5fkAuBziRA8H" name="Page-1">
    <mxGraphModel dx="1276" dy="792" grid="1" gridSize="10" guides="1" tooltips="1" connect="1" arrows="1" fold="1" page="1" pageScale="1" pageWidth="1600" pageHeight="900" math="0" shadow="0">
      <root>
        <mxCell id="0" />
        <mxCell id="1" parent="0" />
        <mxCell id="-RCElyMTM9IQIn420vT6-8" value="" style="rounded=0;whiteSpace=wrap;html=1;fillColor=#f8cecc;strokeColor=#b85450;" parent="1" vertex="1">
          <mxGeometry x="540" y="96" width="285" height="1210" as="geometry" />
        </mxCell>
        <mxCell id="-RCElyMTM9IQIn420vT6-9" value="" style="group" parent="1" vertex="1" connectable="0">
          <mxGeometry x="990" y="380" width="220" height="700" as="geometry" />
        </mxCell>
        <mxCell id="-RCElyMTM9IQIn420vT6-17" value="" style="rounded=0;whiteSpace=wrap;html=1;fillColor=#fff2cc;strokeColor=#d6b656;" parent="-RCElyMTM9IQIn420vT6-9" vertex="1">
          <mxGeometry x="-75" y="90" width="270" height="320" as="geometry" />
        </mxCell>
        <mxCell id="-RCElyMTM9IQIn420vT6-19" value="HTTP" style="shape=ext;rounded=1;html=1;whiteSpace=wrap;dashed=1;dashPattern=1 4;flipV=1;" parent="-RCElyMTM9IQIn420vT6-9" vertex="1">
          <mxGeometry y="140" width="120" height="80" as="geometry" />
        </mxCell>
        <mxCell id="-RCElyMTM9IQIn420vT6-20" value="websocket" style="shape=ext;rounded=1;html=1;whiteSpace=wrap;dashed=1;dashPattern=1 4;flipV=1;" parent="-RCElyMTM9IQIn420vT6-9" vertex="1">
          <mxGeometry y="260" width="120" height="80" as="geometry" />
        </mxCell>
        <mxCell id="-RCElyMTM9IQIn420vT6-23" value="" style="rounded=0;whiteSpace=wrap;html=1;fillColor=#d5e8d4;strokeColor=#82b366;" parent="1" vertex="1">
          <mxGeometry x="1280" y="100" width="270" height="380" as="geometry" />
        </mxCell>
        <mxCell id="-RCElyMTM9IQIn420vT6-1" value="编译原理" style="shape=ext;rounded=1;html=1;whiteSpace=wrap;dashed=1;dashPattern=1 4;flipV=1;flipH=1;" parent="1" vertex="1">
          <mxGeometry x="622.5" y="1000" width="120" height="80" as="geometry" />
        </mxCell>
        <mxCell id="-RCElyMTM9IQIn420vT6-2" value="网络" style="shape=ext;rounded=1;html=1;whiteSpace=wrap;dashed=1;dashPattern=1 4;flipV=1;flipH=1;" parent="1" vertex="1">
          <mxGeometry x="622.5" y="590" width="120" height="80" as="geometry" />
        </mxCell>
        <mxCell id="-RCElyMTM9IQIn420vT6-3" value="计算机组成原理" style="shape=ext;rounded=1;html=1;whiteSpace=wrap;dashed=1;dashPattern=1 4;flipV=1;flipH=1;" parent="1" vertex="1">
          <mxGeometry x="622.5" y="210" width="120" height="80" as="geometry" />
        </mxCell>
        <mxCell id="-RCElyMTM9IQIn420vT6-4" value="操作系统" style="shape=ext;rounded=1;html=1;whiteSpace=wrap;dashed=1;dashPattern=1 4;flipV=1;flipH=1;" parent="1" vertex="1">
          <mxGeometry x="622.5" y="361" width="120" height="80" as="geometry" />
        </mxCell>
        <mxCell id="-RCElyMTM9IQIn420vT6-5" value="数据结构与算法" style="shape=ext;rounded=1;html=1;whiteSpace=wrap;dashed=1;dashPattern=1 4;flipV=1;flipH=1;" parent="1" vertex="1">
          <mxGeometry x="622.5" y="830" width="120" height="80" as="geometry" />
        </mxCell>
        <mxCell id="-RCElyMTM9IQIn420vT6-6" value="软件工程" style="shape=ext;rounded=1;html=1;whiteSpace=wrap;dashed=1;dashPattern=1 4;flipV=1;flipH=1;" parent="1" vertex="1">
          <mxGeometry x="622.5" y="1160" width="120" height="80" as="geometry" />
        </mxCell>
        <mxCell id="-RCElyMTM9IQIn420vT6-10" value="" style="rounded=0;whiteSpace=wrap;html=1;fillColor=#fff2cc;strokeColor=#d6b656;" parent="1" vertex="1">
          <mxGeometry x="915" y="100" width="270" height="320" as="geometry" />
        </mxCell>
        <mxCell id="-RCElyMTM9IQIn420vT6-13" value="浏览器" style="shape=ext;rounded=1;html=1;whiteSpace=wrap;dashed=1;dashPattern=1 4;flipV=1;" parent="1" vertex="1">
          <mxGeometry x="990" y="120" width="120" height="80" as="geometry" />
        </mxCell>
        <mxCell id="-RCElyMTM9IQIn420vT6-14" value="Node" style="shape=ext;rounded=1;html=1;whiteSpace=wrap;dashed=1;dashPattern=1 4;flipV=1;" parent="1" vertex="1">
          <mxGeometry x="990" y="220" width="120" height="80" as="geometry" />
        </mxCell>
        <mxCell id="03PBEkli1zi3KoNq_dkR-1" value="Electon" style="shape=ext;rounded=1;html=1;whiteSpace=wrap;dashed=1;dashPattern=1 4;flipV=1;" vertex="1" parent="1">
          <mxGeometry x="990" y="320" width="120" height="80" as="geometry" />
        </mxCell>
        <mxCell id="03PBEkli1zi3KoNq_dkR-2" value="chrome架构" style="shape=ext;rounded=1;html=1;whiteSpace=wrap;dashed=1;dashPattern=1 4;flipV=1;" vertex="1" parent="1">
          <mxGeometry x="1350" y="130" width="120" height="80" as="geometry" />
        </mxCell>
        <mxCell id="03PBEkli1zi3KoNq_dkR-3" value="导航流程&lt;br&gt;渲染流程" style="shape=ext;rounded=1;html=1;whiteSpace=wrap;dashed=1;dashPattern=1 4;flipV=1;" vertex="1" parent="1">
          <mxGeometry x="1350" y="230" width="120" height="80" as="geometry" />
        </mxCell>
      </root>
    </mxGraphModel>
  </diagram>
</mxfile>
